<?xml version="1.0" encoding="UTF-8"?>
<svg id="a" data-name="레이어 1" xmlns="http://www.w3.org/2000/svg" width="128" height="128" viewBox="0 0 128 128">
  <path d="m94.205,128h-60.411C15.13,128,0,112.87,0,94.205v-60.411C0,15.13,15.13,0,33.795,0h60.411C112.87,0,128,15.13,128,33.795v60.411c0,18.664-15.13,33.795-33.795,33.795Z" fill="#fff" stroke-width="0"/>
  <g>
    <path d="m66,100.401h-31.402c-3.313,0-6-2.687-6-6s2.687-6,6-6h25.402v-25.401c0-3.313,2.687-6,6-6s6,2.687,6,6v31.401c0,3.313-2.687,6-6,6Z" fill="#42427d" stroke-width="0"/>
    <path d="m97.401,69c-1.536,0-3.071-.586-4.242-1.758l-27.159-27.159-27.159,27.159c-2.343,2.344-6.143,2.344-8.485,0-2.343-2.343-2.343-6.142,0-8.485l31.402-31.402c1.125-1.125,2.651-1.757,4.243-1.757s3.117.632,4.243,1.757l31.401,31.402c2.343,2.343,2.343,6.142,0,8.485-1.171,1.172-2.707,1.758-4.242,1.758Z" fill="#42427d" stroke-width="0"/>
  </g>
</svg>