<?xml version="1.0" encoding="UTF-8"?>
<svg id="a" data-name="레이어 1" xmlns="http://www.w3.org/2000/svg" width="128" height="128" viewBox="0 0 128 128">
  <path d="m64,128H10.267C4.597,128,0,123.403,0,117.733s4.597-10.267,10.267-10.267h43.466v-43.466c0-5.67,4.597-10.267,10.267-10.267s10.267,4.597,10.267,10.267v53.733c0,5.67-4.597,10.267-10.267,10.267Z" fill="#fff" stroke-width="0"/>
  <path d="m117.733,74.267c-2.629,0-5.255-1.003-7.259-3.008l-46.473-46.473-46.473,46.473c-4.009,4.011-10.511,4.011-14.52,0-4.01-4.009-4.01-10.509,0-14.519L56.741,3.007c1.926-1.925,4.537-3.007,7.26-3.007s5.334,1.082,7.261,3.007l53.732,53.733c4.009,4.01,4.009,10.51-.002,14.519-2.004,2.005-4.632,3.008-7.259,3.008Z" fill="#fff" stroke-width="0"/>
</svg>