<?xml version="1.0" encoding="UTF-8"?>
<svg id="a" data-name="레이어 1" xmlns="http://www.w3.org/2000/svg" width="760.512" height="429.542" xmlns:xlink="http://www.w3.org/1999/xlink" viewBox="0 0 760.512 429.542">
  <defs>
    <linearGradient id="h" data-name="무제 그라디언트 4" x1="228.912" y1="252.51" x2="288.278" y2="201.433" gradientTransform="translate(40.111 296.57) scale(.563 -.568)" gradientUnits="userSpaceOnUse">
      <stop offset="0" stop-color="#5a9fd4"/>
      <stop offset="1" stop-color="#306998"/>
    </linearGradient>
    <linearGradient id="j" data-name="무제 그라디언트 2" x1="311.23" y1="170.52" x2="290.03" y2="200.513" gradientTransform="translate(40.111 296.57) scale(.563 -.568)" gradientUnits="userSpaceOnUse">
      <stop offset="0" stop-color="#ffd43b"/>
      <stop offset="1" stop-color="#ffe873"/>
    </linearGradient>
    <radialGradient id="l" data-name="무제 그라디언트 3" cx="-196.98" cy="390.71" fx="-196.98" fy="390.71" r="15.812" gradientTransform="translate(612.834 173.686) rotate(-90) scale(.24 -1.055)" gradientUnits="userSpaceOnUse">
      <stop offset="0" stop-color="#b8b8b8" stop-opacity=".498"/>
      <stop offset="1" stop-color="#7f7f7f" stop-opacity="0"/>
    </radialGradient>
    <linearGradient id="n" data-name="무제 그라디언트 5" x1="-198.544" y1="-51.667" x2="-150.061" y2="-100.158" gradientTransform="translate(689.156 152.457) scale(.999 -.999)" gradientUnits="userSpaceOnUse">
      <stop offset="0" stop-color="#000"/>
      <stop offset="1" stop-color="#fff"/>
    </linearGradient>
    <linearGradient id="o" data-name="무제 그라디언트 5" x1="-147.868" y1="-97.96" x2="-196.35" y2="-49.473" xlink:href="#n"/>
  </defs>
  <g>
    <path d="m654.214,123.826l2.825,10.927h-2.133l-1.882-7.871-3.548,7.871h-1.802l-3.528-7.826-1.937,7.826h-2.088l2.8-10.927h1.847l3.814,8.461,3.799-8.461h1.832Z" fill="#003545" stroke-width="0"/>
    <path d="m665.096,128.049v-1.272h2.06v7.976h-2.06v-1.285c-.544.923-1.664,1.453-3.026,1.453-2.848,0-4.436-2.007-4.436-4.316,0-2.226,1.505-4.015,4.132-4.015,1.498.018,2.74.519,3.33,1.458Zm-5.269,2.665c0,1.468.923,2.725,2.71,2.725,1.724,0,2.662-1.227,2.662-2.68s-.969-2.695-2.76-2.695c-1.716,0-2.609,1.239-2.609,2.65h-.003Z" fill="#003545" stroke-width="0"/>
    <path d="m671.801,134.753h-2.057v-7.976h2.057v1.786c.481-1.168,1.612-1.937,2.875-1.955.438-.006.874.065,1.287.211l-.439,1.505c-.355-.094-.721-.145-1.089-.151-1.485,0-2.635,1.119-2.635,2.76v3.819Z" fill="#003545" stroke-width="0"/>
    <path d="m676.992,124.671c-.016-.578.439-1.059,1.017-1.075.029,0,.058,0,.087.001.6-.02,1.102.451,1.121,1.051,0,.019,0,.037,0,.056.011.575-.445,1.05-1.02,1.062-.034,0-.068,0-.101-.003-.584.025-1.078-.428-1.104-1.012-.001-.026-.001-.053,0-.079Zm.09,2.105h2.06v5.829c0,.361.075.62.376.62.132-.003.264-.018.394-.045l.319,1.505c-.434.171-.896.256-1.362.251-.863,0-1.786-.251-1.786-2.211v-5.949Z" fill="#003545" stroke-width="0"/>
    <path d="m688.343,128.049v-1.272h2.067v7.976h-2.06v-1.285c-.544.923-1.664,1.453-3.026,1.453-2.845,0-4.436-2.007-4.436-4.316,0-2.226,1.505-4.015,4.132-4.015,1.49.018,2.732.519,3.322,1.458Zm-5.269,2.665c0,1.468.923,2.725,2.71,2.725,1.726,0,2.665-1.227,2.665-2.68s-.971-2.695-2.76-2.695c-1.719,0-2.612,1.239-2.612,2.65h-.003Z" fill="#003545" stroke-width="0"/>
    <path d="m693.565,123.826h4.935c4.148,0,6.22,2.286,6.19,5.462.03,3.302-2.258,5.465-5.826,5.465h-5.299v-10.927Zm1.362.969v9.005h3.764c3.299,0,4.557-2.226,4.557-4.541,0-2.617-1.573-4.464-4.557-4.464h-3.764Z" fill="#003545" stroke-width="0"/>
    <path d="m713.105,134.753h-6.273v-10.927h5.658c2.163,0,4.223.406,4.193,2.83,0,1.709-1.061,2.18-2.18,2.361,1.588.135,2.544,1.149,2.544,2.785.01,2.451-2.14,2.951-3.942,2.951Zm-.469-6.16c2.165,0,2.65-.833,2.65-1.892,0-1.591-.969-1.952-2.65-1.952h-4.496v3.844h4.496Zm.06.923h-4.557v4.313h4.752c1.332,0,2.74-.439,2.74-2.118,0-1.937-1.618-2.195-2.936-2.195h0Z" fill="#003545" stroke-width="0"/>
    <path d="m717.529,71.747c-.2-.165-.454-.25-.713-.238-.71,0-1.628.482-2.123.74l-.196.1c-.829.401-1.732.629-2.652.667-.943.03-1.756.085-2.815.196-6.273.645-9.07,5.452-11.765,10.102-1.468,2.529-2.983,5.156-5.061,7.163-.43.417-.887.805-1.367,1.162-2.15,1.598-4.85,2.74-6.95,3.548-2.022.773-4.23,1.468-6.363,2.14-1.955.615-3.799,1.197-5.495,1.827-.765.284-1.415.502-1.99.693-1.546.502-2.66.886-4.288,2.007-.635.434-1.272.903-1.704,1.255-1.293,1.031-2.437,2.236-3.4,3.58-.828,1.24-1.785,2.389-2.855,3.427-.344.336-.953.502-1.867.502-1.069,0-2.366-.221-3.739-.454-1.415-.251-2.878-.489-4.132-.489-1.019,0-1.799.166-2.381.502,0,0-.981.572-1.395,1.312l.406.183c.63.342,1.214.763,1.736,1.255.545.503,1.152.935,1.807,1.285.209.077.399.197.557.354-.171.251-.422.575-.685.921-1.448,1.894-2.293,3.091-1.809,3.744.232.121.491.179.753.171,3.156,0,4.853-.82,6.998-1.859.622-.301,1.255-.61,2.007-.928,1.255-.544,2.604-1.413,4.037-2.331,1.874-1.222,3.834-2.476,5.736-3.081,1.563-.477,3.191-.705,4.825-.677,2.007,0,4.12.268,6.157.529,1.518.196,3.091.396,4.634.489.6.035,1.154.053,1.694.053.722.002,1.443-.036,2.16-.113l.173-.06c1.081-.665,1.588-2.093,2.08-3.473.316-.888.582-1.686,1.004-2.193.025-.025.052-.047.08-.068.041-.023.092-.014.123.02v.04c-.251,5.397-2.424,8.824-4.622,11.871l-1.468,1.573s2.055,0,3.224-.452c4.265-1.275,7.485-4.085,9.828-8.566.578-1.15,1.095-2.33,1.548-3.535.04-.1.409-.286.374.233-.013.153-.023.324-.035.502h0c0,.105,0,.213-.02.321-.06.753-.238,2.343-.238,2.343l1.317-.705c3.177-2.007,5.625-6.057,7.482-12.357.773-2.625,1.34-5.231,1.839-7.527.597-2.76,1.112-5.126,1.701-6.044.926-1.44,2.338-2.414,3.706-3.36.186-.128.374-.251.557-.386,1.719-1.207,3.427-2.599,3.804-5.196v-.058c.273-1.937.043-2.431-.221-2.657Z" fill="#003545" stroke-width="0"/>
  </g>
  <path d="m271.154,182.131c-2.317-1.823-4.79-3.57-6.479-6.031-3.556-4.341-6.293-9.366-8.164-14.647-1.131-3.434-1.519-7.116-2.978-10.417-1.524-2.398.263-5.018,2.889-5.78,1.169-.225,3.225-1.329.743-.539-2.226,1.632-2.44-1.483-.158-1.68,1.557-.207,2.131-1.481,1.597-2.628-1.672-1.091,4.054-2.288,1.172-3.915-2.999-3.237,4.197-3.86,2.421-.183-.424,2.827,5.031-.519,3.764,2.746,1.287,1.568,4.818.358,4.729,2.557,1.874.129,2.518,1.705,4.275,1.826,1.825.824,5.129,1.472,5.749,3.526-1.809,1.432-5.996-2.957-6.198,1.006.547,5.856.408,11.888,2.549,17.464,1.013,3.376,3.47,6.033,5.688,8.663,2.123,2.575,4.998,4.389,7.93,5.915,2.57,1.212,5.342,2.015,8.144,2.521,1.136-.869,3.142-4.1,4.914-2.738.086,1.533-3.517,3.202-.169,3.032,1.967-.594,3.331,1.52,4.95-.387,1.492,1.767,6.201-1.128,5.14,2.484-1.436.926-3.529.367-4.967,1.641-2.37-1.184-4.257,1.058-6.882.776-2.914.522-5.88.732-8.834.736-4.848-.382-9.797-.544-14.409-2.232-2.598-.755-5.133-2.235-7.417-3.714h0Zm4.094,1.775c2.536,1.096,5.017,2.252,7.797,2.602,4.411.612,8.966,1.557,13.392.696-2.003-.904-4.075.351-6.07-.646-2.393.514-4.962-.132-7.396-.451-2.767-1.232-5.753-2.079-8.344-3.68-3.239-1.182,1.674,1.517,2.549,1.736,2.024,1.148-2.226-.589-2.826-1.066-1.695-.951-1.911-.752-.167.213.351.205.698.421,1.066.597h0Zm-4.827-3.411c2.459.911-.011-1.728-1.136-1.576-.499-.866-1.907-1.413-.914-1.878-1.786.62-1.871-2.358-2.71-1.932-1.89-.597-.735-2.711-2.987-4.01-.205-1.368-2.237-2.554-2.883-4.616-.286-1.057-2.295-4.089-1.061-1.267,1.051,2.717,2.898,5.045,4.437,7.369,1.194,2.213,2.605,4.527,4.779,5.907.734.704,1.441,1.781,2.475,2.002h0Zm-7.081-7.776c.085-.371.449.803,0,0Zm10.026,8.866c.544-.244-.783-.308,0,0Zm1.333.487c-.138-.672-.609.376,0,0Zm1.671.696c.794-.757-1.226-.478,0,0Zm2.863,1.596c.483-.713-1.547-.269,0,0Zm-5.497-3.832c1.234-.799-1.596-.011,0,0Zm1.253.625c-.036-.421-.446.189,0,0Zm6.262,3.909c1.007.636,5.88,1.393,2.829.261-.512.107-5.657-1.456-2.829-.261Zm-9.94-7.743c-.098-.422-1.564-.468,0,0Zm2.914,1.701c.76-.53-1.574-.409,0,0Zm2.452,1.503c1.089-.41-1.765-.412,0,0Zm-6.554-4.495c1.181.906,4.765.116,1.809-.541-1.344-.717-4.375-1.207-2.309.432l.5.109Zm8.215,5.014c.492-.838-2.064-.479,0,0Zm-2.496-1.983c2.888.816-2.429-1.828-.713-.301l.381.173.332.129Zm5.005,2.892c2.735.026-2.471-.377,0,0Zm-11.776-7.505c-.107-.51-.675.042,0,0Zm16.403,10.101c.073-.92-.892.685,0,0Zm-11.734-7.242c-.166-.485-.855-.02,0,0Zm-4.409-3.178c1.57-.095-2.151-.692,0,0Zm-5.224-3.376c-.196-.753-1.708-1.353,0,0Zm13.713,8.702c-.288-.328-.135.071,0,0Zm8.534,5.238c-.026-.502-.465.189,0,0Zm-9.289-6.018c.154-.646-1.34-.196,0,0Zm-6.358-4.03c1.169-.125-1.873-.79,0,0Zm10.755,6.683c1.821-.721-1.775-.352,0,0Zm-5.594-3.797c2.098.27-2.497-1.428-.462-.153l.462.153Zm7.292,4.483c1.96-1.17,1.314,2.743,3.325.331,1.983-1.448-1.713,1.79.73.258,1.769-1.183,4.379.561,6.029,1.128,1.186-.058,2.339,1.026,3.556.366,2.341-.631-4.578-.935-2.765-2.053-2.141.624-3.723-.743-4.777-2.115-2.403-.555-5.18-1.783-6.38-3.91-.49-.797.706.114-.423-1.192-1.447-1.287-2.169-2.75-3.141-4.315-1.161-.619-1.298-2.442-1.414-.06.01-1.503-1.402-2.515-1.747-2.095-.006-1.447,1.511-.721.449-1.792-.228-1.5-.981-3.063-1.206-4.757-.351-.816-.05-2.564-1.2-.717-.418,1.954-.138-2.4.513-.965.855-1.464-.308-1.292-.355-1.089.557-1.235.353-2.989-.146-2.32.297-1.31.469-4.821-.443-4.198.553-1.371,1.049-6.27-1.354-4.401-.973.014-2.659.353-3.455.749,2.497,1.377-.252.497-1.27.278-.132,1.274-1.139.724-2.398.737,2.011.249-.979,2.056-2.131,1.354-1.498.715,1.292,2.502.029,3.055.156.832-2.294-.301-2.103,1.623-1.453-.613-.199,2.281.528,1.302,2.473.67,1.741,2.194,1.803,3.644-.403.844-1.989-1.985-.353-1.854-1.292-2.097-1.428-.759-2.501.216-.249.07,2.735,1.386.863,2.036,1.647.255,1.696,1.697,2.031,2.61.99,1.032.786-1.14,1.972.101-.751-1.105-3.973-3.114-1.379-2.469-.014-1.111-.47-2.008.326-1.987.788-1.425-.825,3.516.95,1.704.491-.214.614-1.427,1.497.115,1.282,1.262.463,2.175-1.346,1.019.323,1.099,2.42,1.49,2.025,3.208.418,1.511,1.003.954,1.512.867.399,1.467.627.389.645-.311,1.829.392,1.4,1.474,1.973,2.229,1.26.569-1.804-3.856.359-1.331,2.276,2.056.855,2.914-1.189,2.585,1.293-.105,1.709,1.749,3.327,1.683,1.475.702,2.474,3.397-.068,2.275-.881-.796-4.004-1.776-1.453-.264,2.353,1.091,4.224,1.742,6.495,3.112,1.624,1.159,2.326,2.488,2.942,2.751-1.366.652-4.115-.521-2.073-.88-1.274-.232-2.707-.877-1.487.71,1.038.867,3.676.775,4.15.873-.401.883-1.089.953.015,1.021-1.233.657.396.76.51,1.134h0Zm-2.521-7.12c-.751-.785-.945-2.253-.134-.976.417.168,1.332,2.402.134.976Zm8.211,5.216c.468-.031.014.356,0,0Zm-9.395-7.14c-.03-1.186.27.915,0,0Zm-.816-1.097c-.945-1.823,1.189.516,0,0Zm-9.891-6.826c.555-.148.274.948,0,0Zm7.872,4.266c.34-1.279.4,1.073,0,0Zm-5.561-3.867c-.391-.705.819.662,0,0Zm4.771,1.529c-.894-2.002.634-1.094.199.328l-.199-.328Zm-8.229-5.488c-.399-.657-1.06-2.584-.847-3.173.191.959,2.038,4.125.904,1.312-1.251-2.358,1.497.764,1.78,1.354.132.584-.772-.16-.16,1.212-1.117-1.562-.659.863-1.677-.704Zm-2.543-1.753c.104-1.528.581,1.047,0,0Zm1.144.395c.545-1.153.925,1.607,0,0Zm-2.753-2.129c-.947-.942-1.632-1.809.045-.585.645.025-1.436-1.972.156-.634,1.672.305.825,2.743-.201,1.219h0Zm1.445-.037c.55-.545.292.536,0,0Zm.891.284c-.835-1.562,1.012.656,0,0Zm-1.769-1.689c-2.752-2.451,3.458,1.28.449.453l-.449-.453Zm7.887,4.581c-1.192-.713-.317-5.028.09-2.078,1.158-.375-.064,1.525.799,1.506-.135,1.198-.522,1.629-.889.572Zm2.917,1.725c.116-1.301.246.889,0,0Zm-.506-.502c.13-.555.012.654,0,0Zm-9.759-6.61c-1.768-2.44,5.14,2.468,1.133.619-.418-.11-.923-.149-1.133-.619Zm5.618,2.978c-.168-2.055.373.34,0,0Zm4.265,2.736c.329-1.17.025.774,0,0Zm-9.611-6.645c1.051-.225,4.355,1.845,1.321.591-.337-.373-1.057-.204-1.321-.591h0Zm9.025,4.498c.112-2.101.628-1.254.005.302l-.005-.302h0Zm-8.243-5.23c.429-.628-1.138-2.839.225-.793.589.468,1.705.783.72.981,1.549,1.366-.377.37-.945-.188Zm7.797,4.574c.296-2.393.261,1.402,0,0Zm-8.692-6.784c.328-.14.174.436,0,0Zm2.034,1.211c.523-1.099.965,1.224,0,0Zm5.736,3.191c-.005-.421.109.614,0,0Zm-.333-.735c-.796-1.965.742,1.04,0,0Zm-.488-1.289c-.133-.811.454,1.02,0,0Zm.796-1.293c-.547-.962.69-4.243.829-2.208-.577,1.585-.166,2.471.234.345.743-1.672-.16,3.303-1.063,1.863h0Zm.818-4.879c.238-.292.053.352,0,0Zm-1.366,26.907c-.323-.283.042.179,0,0Zm2.813,1.422c1.565.403,1.557-.243.143-.435-.76-.707-3.161-1.458-1.012-.087.142.361.591.351.869.522Zm-5.554-3.69c.861.644,3.246,1.822,1.228.246.681-.791-1.302-1.212-.645-1.742-1.674-1.025-1.321-.933-.148-.9-2.011-.9.29-.832.182-1.293-.776-.153-3.853-1.368-2.042.099-1.84-.937-.439.35-.995.214-1.882-.513,1.676,1.433-.299.95,1.079.855,2.905,2.191.455.904-.322.465,1.753,1.169,2.263,1.521h0Zm2.942,1.691c3.576,1.152-1.755-1.41,0,0Zm15.06,9.123c.047-.71-.488.606,0,0Zm1.548.651c.825-.799.034,1.274,1.368-.196.014-1.052-.04-1.674-1.532-.395-.412.229-.595,1.197.165.591h0Zm-24.571-15.431c-.254-.996-1.777-.992,0,0Zm1.652,1.083c-.614-1.018-2.19-.921,0,0Zm9.404,5.671c.919.816,4.217.598,1.115.101-.459-.679-2.916-.516-1.115-.101Zm12.926,7.984c1.413-1.186-1.369.528,0,0Zm2.939,2.019c.009-.381-.609.166,0,0Zm.005-.533c1.565-1.657-1.515.098,0,0Zm-30.992-19.628c-1.333-1.902-.828-2.757-2.115-4.311-.244-1.189-2.207-3.884-1.015-1.029,1.091,1.671,1.414,4.257,3.13,5.34h0Zm30.501,19.101c2.88-1.861-1.181-.81,0,0Zm2.198.861c1.442-1.237-.912-.258,0,0Zm-29.122-18.661c.412-.614-1.066-.079,0,0Zm28.664,18.073c1.396-.9-.322-.762-.253.082l.253-.082Zm-18.942-11.939c-.048-.609-.738.051,0,0Zm1.17.673c-.373-.752-.572.118,0,0Zm20.011,11.874c1.789-1.29-1.083-.247-.375.246l.375-.246Zm-.685-.331c1.458-1.22-1.537.541,0,0Zm3.5,2.329c.978-.654-1.189-.211,0,0Zm-32.82-21.123c1.31.294,5.239,3.228,2.922.204-1.187-.351-.475-3.253-1.686-2.74.813,1.358.668,1.935-1.039,1.08-2.143-1.048-1.204.518-.784.95-.572.13.755.496.587.506h0Zm-5.973-4.717c.235-.972-2.162-5.34-1.131-2.19.371.66.333,1.911,1.131,2.19Zm10.963,6.759c-.676-.564-.033-.081,0,0Zm1.661.387c0-1.029-1.837-.418,0,0Zm14.407,9.081c-.275-.703-1.086-.016,0,0Zm.692.505c-.103-.393-.4.076,0,0Zm5.71,3.598c.549-.405-.685-.053,0,0Zm-30.451-19.568c1.571-.608-1.683-.434,0,0Zm22.781,14.351c-.018-1.016-1.002.254,0,0Zm-23.401-15.798c1.009-.34-.934-.223,0,0Zm2.928,1.419c-.017-.334-.309.128,0,0Zm35.722,21.906c1.298-.263,4.255.661,4.732-.343-1.576-.039-5.45-1.113-5.634.255l.345.055.557.034h0Zm-34.792-21.671c.024-1.031-.803-.039,0,0Zm-7.699-5.342c-.35-1.963-1.331-.297,0,0Zm1.835.462c.024-.631-1.68-.567,0,0Zm1.049.516c-.303-.246-.236.309,0,0Zm6.604,4.235c.311-.286-.737-.211,0,0Zm-7.301-5.398c-.178-1.483-2.128-.222,0,0Zm-3.766-2.443c-.053-.684-.367.258,0,0Zm.561-.422c-.092-.812-.482.102,0,0Zm3.093,1.846c1.309-.513-2.383-1.063-.267-.096l.267.096Zm41.409,25.579c.838-.768-1.063-.238,0,0Zm5.003,2.592c.336-.991-.846.131,0,0Zm-46.096-29.792c.139-.96-1.038.191,0,0Zm-4.402-2.95c-.236-1.355-.204-3.735,2.058-2.931-3.018.6,2.09,3.753,1.445,1.263,1.27.063,2.484-.75,1.817.482,2.502-.275,4.235-2.444,6.652-2.14,1.882-.25,3.94-.438,5.968-1.197,1.668-.12,3.273-1.915,2.359-2.979-2.274-.193-4.655.092-7.168.592-2.785.578-5.315,1.678-8.125,2.151-2.74.368.55,1.013-.235,1.158-1.428.496,1.705.83-.185,1.354-1.167-.222-2.382-.623-1.884-1.854-2.623.342-4.93,1.43-2.856,4.1h.154s0,.002,0,.002Zm6.324-3.22c.614-2.266,3.295,1.865,1.007.302-.272-.205-.723-.372-1.007-.302Zm.119-1.099c.888-.66.471.372,0,0Zm1.127.019c.081-1.043,2.582.552.412.375l-.412-.375h0Zm1.542-.62c.564-.659.164.584,0,0Zm.395-.264c.939-1.127,5.31-.72,2.11-.111-.858-.646-1.515.381-2.11.111h0Zm5.707-.88c-.141-3.079,2.836,1.093,0,0Zm1.62-.01c.592-1.551,2.298-.623.275-.312.043.166-.061.802-.275.312Zm-13.069,8.228c1.768-1.083-1.878-.94,0,0Zm1.308.362c.62-.659-1.349-.267,0,0Zm-3.854-2.734c1.01-.777-1.197-.295,0,0Zm52.232,32.676c.029-.901-.772.405,0,0Zm-5.308-3.623c.151-1.036-.682.09,0,0Zm6.767,3.973c1.413.005,4.281-.44,1.207-.439-.483.075-2.811.059-1.207.439Zm-48.687-30.928c1.144-.078,1.789-1.261-.222-1.194-3.116-.322,2.749,1.068-.399.67-.423.28.597.601.622.524Zm1.007.51c-.12-.734-.355.39,0,0Zm1.195-3.186c.496-.616-.687-.165,0,0Zm-3.805-6.358c2.042-.693,4.834-1.473,5.797.342-.981-1.18-.396-2.342.53-.616,1.31,1.745,1.966-.794,1.114-1.38.972,1.206,2.075,1.777.65.077,1.55-1.864-3.1.244-4.157.222-.508.228-5.25,1.209-3.934,1.355h0Zm1.197-2.29c1.164-.878,4.027.524,2.19-.874-.18-.158-4.022,1.06-2.19.874Zm4.245.175c1.361.034-.587-1.831,1.035-.985-.266-.87-1.89-1.033-2.684-1.381-.449.796.913,2.378,1.649,2.367Zm-3.5-3.853c.471-.639-.827.325,0,0Zm1.735.415c2.196-.29-.56-.945-.444-.023l.443.023h0Zm-3.24-2.533c-1.547-2.019,2.908.339,1.336-1.775-1.322-1.052-2.592,1.186-1.336,1.775h0Zm19.839,10.685c.709-1.256-2.926-1.694-.477-.445.225.075.174.532.477.445h0Zm-14.395,46.779c-.157.619-.254,1.659-.29,3.118,0,.287-.129.43-.388.43s-.439-.125-.541-.375c-.277-.675-.54-1.145-.79-1.413-.295-.314-.688-.503-1.178-.568-.526-.083-1.838-.125-3.935-.125-.48,0-.795.051-.942.153-.092.064-.139.203-.139.416v6.277c0,.212.134.314.401.305.823-.01,2.014-.066,3.575-.166.305-.038.511-.137.617-.299.107-.162.211-.579.312-1.254.064-.37.282-.513.651-.429.314.065.449.208.402.429-.259,1.257-.343,2.892-.25,4.906.01.24-.143.369-.457.388-.259.028-.421-.111-.485-.416-.24-1.154-.686-1.771-1.337-1.85-.651-.078-1.712-.117-3.18-.117-.166,0-.249.06-.249.18v6.235c0,.462.17.776.512.942.269.139.846.264,1.732.374.453.046.651.245.597.596-.056.305-.462.425-1.22.361-2.189-.176-3.995-.166-5.417.028-.398.055-.596-.107-.596-.485,0-.241.198-.379.596-.416.905-.102,1.358-.897,1.358-2.383v-11.862c0-.609-.109-1.078-.325-1.406-.217-.328-.622-.626-1.212-.894-.37-.166-.508-.392-.416-.679.046-.175.12-.273.221-.291.092-.028.338-.01.734.056.582.092,1.954.139,4.116.139,2.55,0,4.753-.056,6.61-.166.619-.038.929.014.929.152,0,.038-.005.074-.014.111h0Zm8.986,17.59c0,.37-.208.531-.623.485-1.274-.12-2.854-.102-4.738.055-.379.038-.612.028-.7-.027-.088-.056-.131-.208-.131-.458,0-.221.251-.408.755-.561.504-.152.755-.607.755-1.364v-12.54c0-.749-.109-1.298-.325-1.649-.217-.351-.598-.623-1.143-.817-.287-.102-.43-.245-.43-.43,0-.277.208-.485.624-.623.628-.203,1.28-.517,1.954-.942.554-.333.906-.498,1.053-.498.342,0,.513.235.513.706,0-.036-.019.425-.056,1.386-.027.914-.036,1.815-.027,2.702l.055,12.373c0,.564.139.973.416,1.227.277.254.753.422,1.427.505.415.046.623.203.623.471h0Zm12.532-.817c0,.194-.353.487-1.06.879-.707.393-1.273.589-1.697.589-.361,0-.679-.175-.956-.526-.277-.351-.472-.526-.582-.526-.083,0-.522.189-1.317.568-.794.379-1.593.569-2.397.569-.757,0-1.39-.222-1.898-.665-.554-.49-.831-1.155-.831-1.996,0-1.598,1.829-2.743,5.487-3.436.627-.12.947-.374.955-.762l.028-.887c.056-1.515-.614-2.272-2.009-2.272-.397,0-.774.355-1.13,1.066-.355.712-.866,1.095-1.531,1.151-.757.073-1.136-.245-1.136-.956,0-.444.564-.96,1.691-1.552,1.183-.619,2.319-.929,3.409-.929,1.875,0,2.803.892,2.785,2.675l-.056,5.708c-.009.601.246.901.762.901.102,0,.296-.023.582-.069.287-.046.453-.069.5-.069.267,0,.401.181.401.541h0Zm-4.267-3.159c.01-.231-.044-.384-.16-.457-.116-.074-.297-.089-.547-.042-2.227.397-3.34,1.123-3.34,2.176,0,1.062.577,1.593,1.732,1.593.462,0,.938-.087,1.427-.263.574-.204.859-.448.859-.735l.028-2.272h0Zm14.569,1.565c0,.979-.377,1.758-1.13,2.335-.753.578-1.78.866-3.083.866-.868,0-1.737-.092-2.605-.277-.749-.166-1.183-.318-1.303-.457-.074-.13-.111-.762-.111-1.899,0-.49.111-.744.333-.762.222-.028.411.092.568.36.693,1.21,1.811,1.816,3.353,1.816,1.302,0,1.953-.453,1.953-1.359,0-.396-.147-.729-.443-.997-.323-.305-.951-.661-1.884-1.067-1.349-.6-2.25-1.127-2.702-1.58-.49-.48-.734-1.127-.734-1.94,0-.998.383-1.773,1.15-2.328.711-.536,1.663-.804,2.854-.804.749,0,1.432.059,2.052.18.665.12,1.011.268,1.039.443.073.517.226,1.265.457,2.245.028.119-.102.217-.388.29-.305.065-.508.014-.61-.152-.729-1.192-1.653-1.788-2.771-1.788-1.265,0-1.898.406-1.898,1.219,0,.453.171.813.513,1.08.305.231,1.021.592,2.148,1.082,1.182.508,1.986.965,2.411,1.371.554.526.831,1.234.831,2.12h0Zm16.301,2.425c0,.323-.217.494-.651.513-.647.01-1.493.056-2.536.139-.518.102-.887.038-1.109-.193-1.46-1.57-2.698-3.215-3.714-4.933-.083-.147-.189-.221-.318-.221-.157,0-.429.139-.817.416-.435.24-.651.582-.651,1.024,0,.315.009.767.028,1.359.019.591.166.978.443,1.163.194.13.643.231,1.344.305.434.056.652.217.652.485,0,.213-.035.345-.104.395-.069.051-.252.063-.548.035-.924-.083-2.484-.037-4.683.139-.554.046-.855-.023-.901-.208-.018-.064-.028-.157-.028-.277,0-.286.282-.503.846-.65.508-.13.762-.726.762-1.788v-12.111c0-.757-.074-1.284-.222-1.579-.203-.379-.628-.675-1.275-.887-.304-.101-.457-.244-.457-.429,0-.269.217-.476.651-.623.698-.234,1.364-.555,1.981-.956.508-.332.823-.499.942-.499.379,0,.569.24.569.721,0-.065-.005.393-.014,1.371-.01.905-.014,1.811-.013,2.716l.028,8.674c0,.241.064.36.193.36.139,0,.351-.119.638-.36.767-.601,1.709-1.386,2.826-2.356.222-.231.333-.416.333-.554,0-.249-.374-.425-1.122-.526-.323-.038-.476-.217-.458-.541.028-.323.19-.462.485-.416.666.093,1.636.144,2.91.153.887.009,1.769.014,2.647.014.286.01.429.18.429.513,0,.314-.226.485-.679.513-.712.027-1.382.188-2.009.485-.878.396-1.816,1.094-2.814,2.092-.073.056-.111.125-.111.208,0,.129.157.439.472.929,1.155,1.755,2.245,3.08,3.27,3.977.656.563,1.27.845,1.843.845.425,0,.689.03.79.09.102.06.153.22.153.478h0Z" stroke-width="0"/>
  <g>
    <path d="m650.399,311.103c0-8.238,6.678-14.916,14.916-14.916h32.268c8.241,0,14.919,6.678,14.919,14.916v47.212h-47.187c-8.238,0-14.916-6.678-14.916-14.916v-32.296Z" fill="#74aa9c" stroke-width="0"/>
    <path id="b" data-name="a" d="m678.979,303.888c-5.115,0-9.659,3.289-11.243,8.145l-.571,3.335v11.054c0,.553.284,1.044.759,1.328l8.899,5.128v-15.19h.003v-.721l9.008-5.203c.871-.504,1.82-.849,2.802-1.029l-.867-2.942c-2.237-2.501-5.438-3.921-8.791-3.906Zm0,3.035l-.015.015c2.059,0,4.038.71,5.621,2.025-.065.031-.191.111-.284.158l-9.313,5.363c-.475.269-.759.775-.759,1.328v12.588l-4.007-2.309v-10.406c-.003-4.833,3.916-8.755,8.757-8.763h0Z" fill="#fff" stroke-width="0"/>
    <path id="c" data-name="a" d="m700.437,313.422c-2.557-4.43-7.677-6.721-12.675-5.664l-3.174,1.173-9.573,5.527c-.479.276-.762.768-.77,1.322l.009,10.271,13.155-7.595v.002s.625-.36.625-.36l9.01,5.2c.872.502,1.645,1.151,2.292,1.912l2.114-2.222c1.047-3.188.677-6.67-1.013-9.566Zm-2.629,1.518l-.021-.006c1.029,1.783,1.404,3.852,1.057,5.881-.059-.04-.192-.11-.279-.167l-9.301-5.384c-.47-.277-1.051-.27-1.53.006l-10.902,6.294-.003-4.625,9.011-5.203c4.185-2.419,9.54-.986,11.967,3.203h0Z" fill="#fff" stroke-width="0"/>
    <path id="d" data-name="a" d="m702.909,336.772c2.557-4.43,1.982-10.009-1.433-13.809l-2.603-2.162-9.573-5.527c-.479-.276-1.046-.276-1.53-.006l-8.891,5.143,13.155,7.595v.002s.623.36.623.36l.002,10.403c.001,1.006-.175,2-.51,2.941l2.981.72c3.284-.687,6.115-2.749,7.778-5.66Zm-2.629-1.518l-.006-.021c-1.029,1.783-2.634,3.142-4.565,3.856.005-.071,0-.221.006-.325l.012-10.747c.005-.546-.291-1.045-.77-1.322l-10.902-6.294,4.003-2.315,9.011,5.203c4.187,2.414,5.624,7.769,3.21,11.965h0Z" fill="#fff" stroke-width="0"/>
    <path id="e" data-name="a" d="m683.923,350.589c5.115,0,9.659-3.289,11.243-8.145l.571-3.335v-11.054c0-.553-.284-1.044-.759-1.328l-8.899-5.128v15.19h-.003v.721l-9.008,5.203c-.871.504-1.82.849-2.802,1.029l.867,2.942c2.237,2.501,5.438,3.921,8.791,3.906Zm0-3.035l.015-.015c-2.059,0-4.038-.71-5.621-2.025.065-.031.191-.111.284-.158l9.313-5.363c.475-.269.759-.775.759-1.328v-12.588l4.007,2.309v10.406c.003,4.833-3.916,8.755-8.757,8.763h0Z" fill="#fff" stroke-width="0"/>
    <path id="f" data-name="a" d="m662.465,341.054c2.557,4.43,7.677,6.721,12.675,5.664l3.174-1.173,9.573-5.527c.479-.276.762-.768.77-1.322l-.009-10.271-13.155,7.595v-.002s-.625.36-.625.36l-9.01-5.2c-.872-.502-1.645-1.151-2.292-1.912l-2.114,2.222c-1.047,3.188-.677,6.67,1.013,9.566Zm2.629-1.518l.021.006c-1.029-1.783-1.404-3.852-1.057-5.881.059.04.192.11.279.167l9.301,5.384c.47.277,1.051.27,1.53-.006l10.902-6.294.003,4.625-9.011,5.203c-4.185,2.419-9.54.986-11.967-3.203h0Z" fill="#fff" stroke-width="0"/>
    <path id="g" data-name="a" d="m659.993,317.704c-2.557,4.43-1.982,10.009,1.433,13.809l2.603,2.162,9.573,5.527c.479.276,1.046.276,1.53.006l8.891-5.143-13.155-7.595v-.002s-.623-.36-.623-.36l-.002-10.403c-.001-1.006.175-2,.51-2.941l-2.981-.72c-3.284.687-6.115,2.749-7.778,5.66Zm2.629,1.518l.006.021c1.029-1.783,2.634-3.142,4.565-3.856-.005.071,0,.221-.006.325l-.012,10.747c-.005.546.291,1.045.77,1.322l10.902,6.294-4.003,2.315-9.011-5.203c-4.187-2.414-5.624-7.769-3.21-11.965h0Z" fill="#fff" stroke-width="0"/>
  </g>
  <g>
    <path id="i" data-name="path1948" d="m200.275,151.41c-2.496.012-4.88.224-6.977.596-6.179,1.092-7.301,3.376-7.301,7.59v5.565h14.601v1.855h-20.081c-4.243,0-7.959,2.551-9.121,7.403-1.341,5.562-1.4,9.032,0,14.839,1.038,4.323,3.517,7.403,7.76,7.403h5.02v-6.671c0-4.819,4.17-9.07,9.121-9.07h14.584c4.06,0,7.301-3.343,7.301-7.42v-13.903c0-3.957-3.338-6.929-7.301-7.59-2.508-.418-5.111-.607-7.607-.596Zm-7.896,4.476c1.508,0,2.74,1.252,2.74,2.791,0,1.534-1.232,2.774-2.74,2.774-1.514,0-2.74-1.24-2.74-2.774s1.226-2.791,2.74-2.791Z" fill="url(#h)" stroke-width="0"/>
    <path id="k" data-name="path1950" d="m217.003,167.015v6.484c0,5.027-4.262,9.258-9.121,9.258h-14.584c-3.995,0-7.301,3.419-7.301,7.42v13.903c0,3.957,3.441,6.284,7.301,7.42,4.622,1.359,9.054,1.605,14.584,0,3.676-1.064,7.301-3.206,7.301-7.42v-5.565h-14.584v-1.855h21.885c4.243,0,5.825-2.96,7.301-7.403,1.524-4.574,1.46-8.972,0-14.839-1.049-4.224-3.052-7.403-7.301-7.403h-5.48Zm-8.202,35.209c1.514,0,2.74,1.24,2.74,2.774s-1.226,2.791-2.74,2.791-2.74-1.252-2.74-2.791,1.232-2.774,2.74-2.774Z" fill="url(#j)" stroke-width="0"/>
    <ellipse id="m" data-name="path1894" cx="200.764" cy="220.95" rx="19.567" ry="3.794" fill="url(#l)" isolation="isolate" opacity=".444" stroke-width="0"/>
  </g>
  <g>
    <path d="m515.606,244.438c15.208,20.731,30.091-5.787,30.069-21.733-.026-18.854-19.136-29.392-30.081-29.392-17.568,0-34.299,14.519-34.299,34.385,0,22.081,19.178,34.312,34.299,34.312-3.422-.493-14.824-2.936-14.978-29.2-.103-17.763,5.795-24.86,14.953-21.738.205.076,10.102,3.98,10.102,16.734s-10.065,16.633-10.065,16.633Z" fill="url(#n)" fill-rule="evenodd" stroke-width="0"/>
    <path d="m515.587,211.057c-10.049-3.464-22.359,4.819-22.359,21.407,0,27.087,20.072,29.545,22.505,29.545,17.568,0,34.299-14.519,34.299-34.385,0-22.081-19.178-34.312-34.299-34.312,4.188-.58,22.573,4.532,22.573,29.66,0,16.386-13.728,25.307-22.656,21.495-.205-.076-10.102-3.98-10.102-16.734s10.039-16.677,10.039-16.677h0Z" fill="url(#o)" fill-rule="evenodd" stroke-width="0"/>
  </g>
  <g>
    <path d="m411.66,96.23c-12.731,0-25.619-3.712-25.619-10.805s12.888-10.806,25.619-10.806,25.619,3.712,25.619,10.806-12.888,10.805-25.619,10.805Zm0-16.506c-13.534,0-20.513,3.996-20.513,5.7s6.979,5.699,20.513,5.699,20.513-3.995,20.513-5.699-6.979-5.7-20.513-5.7Z" fill="#ff125b" stroke-width="0"/>
    <path d="m411.66,110.358c-12.731,0-25.619-3.712-25.619-10.805h5.106c0,1.704,6.979,5.699,20.513,5.699s20.513-3.995,20.513-5.699h5.106c0,7.094-12.888,10.805-25.619,10.805Z" fill="#ff125b" stroke-width="0"/>
    <path d="m411.66,124.486c-12.731,0-25.619-3.712-25.619-10.806h5.106c0,1.704,6.979,5.7,20.513,5.7s20.513-3.996,20.513-5.7h5.106c0,7.095-12.888,10.806-25.619,10.806Z" fill="#ff125b" stroke-width="0"/>
    <path d="m411.66,138.615c-12.731,0-25.619-3.712-25.619-10.806h5.106c0,1.704,6.979,5.7,20.513,5.7s20.513-3.996,20.513-5.7h5.106c0,7.095-12.888,10.806-25.619,10.806Z" fill="#ff125b" stroke-width="0"/>
    <rect x="432.173" y="85.424" width="5.106" height="42.384" fill="#ff125b" stroke-width="0"/>
    <rect x="386.041" y="85.424" width="5.106" height="42.384" fill="#ff125b" stroke-width="0"/>
  </g>
  <rect x="613.423" y="38.589" width="136.055" height="136.055" fill="none" stroke="#000" stroke-miterlimit="10" stroke-width="3"/>
  <g>
    <path d="m616.025,18.439c-.37-.262-.843-.394-1.417-.394-.376,0-.713.054-1.012.162-.298.107-.534.261-.708.46-.174.199-.259.422-.253.671-.006.298.121.556.381.771s.677.387,1.252.514l2.295.464c1.232.254,2.149.663,2.752,1.226.602.564.906,1.304.911,2.221-.005.823-.241,1.55-.708,2.18s-1.126,1.12-1.977,1.471c-.852.351-1.835.526-2.95.526-1.133,0-2.113-.162-2.942-.485s-1.479-.784-1.951-1.384c-.473-.6-.756-1.316-.85-2.15h3.48c.083.497.319.873.708,1.127.39.254.908.381,1.555.381.42,0,.788-.054,1.106-.162.317-.108.563-.26.737-.456.174-.196.261-.43.261-.7,0-.332-.14-.602-.418-.812-.279-.21-.717-.378-1.313-.506l-2.105-.414c-1.216-.238-2.133-.665-2.751-1.281-.619-.616-.926-1.394-.92-2.333-.006-.807.212-1.51.654-2.109.442-.599,1.066-1.059,1.873-1.38.807-.32,1.751-.48,2.834-.48,1.061,0,1.987.159,2.78.477s1.412.773,1.856,1.367c.445.594.697,1.297.759,2.109h-3.249c-.077-.458-.301-.819-.671-1.082Z" stroke-width="0"/>
    <path d="m623.556,27.883c-.942-.552-1.664-1.325-2.167-2.316s-.754-2.131-.754-3.418c0-1.298.254-2.443.762-3.435.509-.992,1.232-1.764,2.172-2.316.938-.552,2.041-.829,3.307-.829,1.088,0,2.052.199,2.892.597s1.5.963,1.981,1.695c.48.732.745,1.582.795,2.548h-3.273c-.066-.425-.201-.8-.406-1.123-.204-.323-.471-.572-.8-.746-.328-.174-.708-.261-1.139-.261-.553,0-1.036.15-1.45.452-.415.301-.736.739-.966,1.313s-.344,1.26-.344,2.055c0,.807.113,1.499.34,2.076s.547,1.018.961,1.322.9.456,1.459.456c.408,0,.777-.083,1.106-.249.328-.166.599-.407.812-.725.213-.317.355-.697.427-1.14h3.273c-.055.961-.318,1.81-.791,2.544s-1.124,1.307-1.956,1.715c-.831.409-1.8.613-2.904.613-1.282,0-2.394-.276-3.336-.829Z" stroke-width="0"/>
    <path d="m636.953,28.463h-3.473V11.491h3.373v6.48h.149c.193-.503.467-.934.82-1.293.354-.359.78-.634,1.28-.824.5-.191,1.067-.286,1.703-.286.884,0,1.659.19,2.324.572.666.381,1.179.932,1.538,1.653.358.721.538,1.576.538,2.565v8.105h-3.473v-7.5c0-.525-.088-.977-.265-1.355s-.438-.666-.783-.862c-.346-.196-.761-.294-1.247-.294s-.916.105-1.289.315-.666.514-.878.912c-.213.398-.319.87-.319,1.417v7.367Z" stroke-width="0"/>
    <path d="m647.721,28.401c-.305-.18-.545-.418-.722-.717s-.263-.625-.257-.978c-.006-.354.08-.681.257-.982.177-.301.417-.539.722-.713.304-.174.635-.261.994-.261.343,0,.666.087.97.261s.545.412.725.713c.18.301.27.628.27.982s-.09.68-.27.978-.421.537-.725.717c-.304.179-.627.269-.97.269-.359,0-.69-.09-.994-.269Z" stroke-width="0"/>
    <path d="m658.86,18.439c-.37-.262-.843-.394-1.417-.394-.376,0-.713.054-1.012.162-.298.107-.534.261-.708.46-.174.199-.259.422-.253.671-.006.298.121.556.381.771s.677.387,1.252.514l2.295.464c1.232.254,2.149.663,2.752,1.226.602.564.906,1.304.911,2.221-.005.823-.241,1.55-.708,2.18s-1.126,1.12-1.977,1.471c-.852.351-1.835.526-2.95.526-1.133,0-2.113-.162-2.942-.485s-1.479-.784-1.951-1.384c-.473-.6-.756-1.316-.85-2.15h3.48c.083.497.319.873.708,1.127.39.254.908.381,1.555.381.42,0,.788-.054,1.106-.162.317-.108.563-.26.737-.456.174-.196.261-.43.261-.7,0-.332-.14-.602-.418-.812-.279-.21-.717-.378-1.313-.506l-2.105-.414c-1.216-.238-2.133-.665-2.751-1.281-.619-.616-.926-1.394-.92-2.333-.006-.807.212-1.51.654-2.109.442-.599,1.066-1.059,1.873-1.38.807-.32,1.751-.48,2.834-.48,1.061,0,1.987.159,2.78.477s1.412.773,1.856,1.367c.445.594.697,1.297.759,2.109h-3.249c-.077-.458-.301-.819-.671-1.082Z" stroke-width="0"/>
    <path d="m667.464,28.463h-3.473V11.491h3.373v6.48h.149c.193-.503.467-.934.82-1.293.354-.359.78-.634,1.28-.824.5-.191,1.067-.286,1.703-.286.884,0,1.659.19,2.324.572.666.381,1.179.932,1.538,1.653.358.721.538,1.576.538,2.565v8.105h-3.473v-7.5c0-.525-.088-.977-.265-1.355s-.438-.666-.783-.862c-.346-.196-.761-.294-1.247-.294s-.916.105-1.289.315-.666.514-.878.912c-.213.398-.319.87-.319,1.417v7.367Z" stroke-width="0"/>
    <path d="m683.908,18.344h-7.625v-2.611h7.625v2.611Zm-2.403-5.66v11.875c0,.32.049.573.148.758s.237.316.415.394c.177.078.392.119.646.125.248.005.701-.014,1.358-.058v2.735c-.53.083-1.141.124-1.831.124-.856,0-1.599-.132-2.226-.397s-1.116-.665-1.467-1.198-.523-1.203-.518-2.01v-12.348h3.473Z" stroke-width="0"/>
    <path d="m687.161,27.912c-.947-.533-1.675-1.291-2.184-2.275-.508-.983-.762-2.144-.762-3.48,0-1.298.255-2.446.767-3.443.511-.997,1.23-1.771,2.158-2.32.929-.55,2.006-.825,3.232-.825,1.144,0,2.166.24,3.066.721.9.48,1.61,1.206,2.13,2.175.519.97.778,2.156.778,3.559v.97h-10.715v-2.171h7.441c-.005-.514-.12-.972-.344-1.375s-.534-.718-.933-.945c-.397-.227-.851-.34-1.358-.34-.536,0-1.016.125-1.438.373-.422.249-.753.586-.99,1.011s-.359.892-.364,1.4v2.047c0,.636.12,1.187.36,1.653.24.467.58.828,1.02,1.082.439.254.954.381,1.546.381.392,0,.747-.053,1.064-.158.317-.104.589-.252.812-.443.224-.19.394-.413.51-.667h3.298c-.166.779-.503,1.46-1.011,2.043-.509.583-1.166,1.033-1.973,1.351-.807.318-1.727.477-2.76.477-1.287,0-2.404-.267-3.353-.8Z" stroke-width="0"/>
    <path d="m700.8,28.463h-3.473V11.491h3.473v16.972Z" stroke-width="0"/>
    <path d="m704.722,27.891c-.944-.547-1.671-1.316-2.18-2.308-.508-.992-.762-2.137-.762-3.435,0-1.31.254-2.46.762-3.452.509-.992,1.235-1.761,2.18-2.308.945-.547,2.05-.82,3.315-.82s2.368.273,3.311.82c.941.547,1.666,1.316,2.171,2.308.506.992.759,2.142.759,3.452,0,1.298-.253,2.443-.759,3.435-.505.992-1.229,1.761-2.171,2.308-.942.547-2.046.82-3.311.82s-2.37-.273-3.315-.82Zm4.803-2.375c.406-.334.713-.795.92-1.384s.311-1.258.311-2.01-.104-1.421-.311-2.01-.514-1.051-.92-1.388c-.406-.337-.896-.505-1.471-.505-.586,0-1.085.167-1.496.501-.412.334-.723.797-.933,1.388s-.314,1.262-.314,2.014c0,.757.104,1.428.314,2.014.21.586.521,1.046.933,1.38.411.334.91.501,1.496.501.574,0,1.064-.167,1.471-.501Z" stroke-width="0"/>
    <path d="m716.31,28.401c-.305-.18-.545-.418-.722-.717s-.263-.625-.257-.978c-.006-.354.08-.681.257-.982.177-.301.417-.539.722-.713.304-.174.635-.261.994-.261.343,0,.666.087.97.261s.545.412.725.713c.18.301.27.628.27.982s-.09.68-.27.978-.421.537-.725.717c-.304.179-.627.269-.97.269-.359,0-.69-.09-.994-.269Z" stroke-width="0"/>
    <path d="m723.264,27.891c-.944-.547-1.671-1.316-2.18-2.308-.508-.992-.762-2.137-.762-3.435,0-1.31.254-2.46.762-3.452.509-.992,1.235-1.761,2.18-2.308.945-.547,2.05-.82,3.315-.82s2.368.273,3.311.82c.941.547,1.666,1.316,2.171,2.308.506.992.759,2.142.759,3.452,0,1.298-.253,2.443-.759,3.435-.505.992-1.229,1.761-2.171,2.308-.942.547-2.046.82-3.311.82s-2.37-.273-3.315-.82Zm4.803-2.375c.406-.334.713-.795.92-1.384s.311-1.258.311-2.01-.104-1.421-.311-2.01-.514-1.051-.92-1.388c-.406-.337-.896-.505-1.471-.505-.586,0-1.085.167-1.496.501-.412.334-.723.797-.933,1.388s-.314,1.262-.314,2.014c0,.757.104,1.428.314,2.014.21.586.521,1.046.933,1.38.411.334.91.501,1.496.501.574,0,1.064-.167,1.471-.501Z" stroke-width="0"/>
    <path d="m733.807,15.733h3.365v2.213h.132c.155-.514.382-.952.68-1.313.299-.362.65-.633,1.057-.812.406-.18.85-.27,1.33-.27.376,0,.746.036,1.11.108v3.099c-.177-.049-.405-.094-.688-.132-.281-.039-.547-.058-.796-.058-.519,0-.984.112-1.396.335-.412.224-.735.539-.97.945-.235.406-.353.866-.353,1.38v7.235h-3.473v-12.729Z" stroke-width="0"/>
    <path d="m744.272,33.013c-.859-.326-1.532-.79-2.019-1.393-.486-.602-.766-1.307-.837-2.113h3.423c.061.337.201.616.423.837.221.221.51.384.865.489.356.105.77.158,1.239.158.846,0,1.506-.196,1.98-.588.476-.393.713-1.011.713-1.856v-2.345h-.149l-.033.074c-.198.393-.448.731-.75,1.015-.301.285-.693.521-1.177.709-.483.188-1.043.282-1.678.282-.983,0-1.866-.233-2.647-.701-.782-.467-1.399-1.168-1.853-2.105-.453-.936-.68-2.087-.68-3.452,0-1.386.23-2.566.692-3.539.461-.972,1.082-1.702,1.864-2.188.782-.486,1.653-.729,2.614-.729.63,0,1.179.101,1.646.302.467.202.846.453,1.136.754s.542.648.758,1.04c.033.066.066.135.1.207h.141v-2.138h3.431v12.862c0,1.061-.258,1.958-.774,2.693-.517.734-1.242,1.287-2.176,1.657s-2.011.555-3.231.555c-1.155,0-2.162-.163-3.021-.489Zm4.549-7.778c.406-.29.716-.704.929-1.243.213-.539.319-1.184.319-1.935s-.105-1.407-.315-1.968c-.21-.561-.52-.991-.928-1.292-.409-.301-.898-.452-1.467-.452-.58,0-1.072.155-1.476.464-.403.31-.711.743-.924,1.301s-.319,1.207-.319,1.947.106,1.38.319,1.918c.213.539.521.956.924,1.251.403.296.896.443,1.476.443.568,0,1.057-.145,1.462-.435Z" stroke-width="0"/>
  </g>
  <rect x="137.964" y="38.589" width="197.421" height="197.421" fill="none" stroke="#000" stroke-miterlimit="10" stroke-width="3"/>
  <g>
    <path d="m197.947,15.195c-.243-.32-.577-.565-1.002-.733-.426-.168-.923-.252-1.492-.252-.58,0-1.079.083-1.496.249-.417.166-.734.396-.953.692-.218.295-.327.628-.327.999-.011.575.226,1.023.709,1.347s1.15.584,2.001.783l1.533.373c1.039.237,1.931.563,2.677.978.746.415,1.332.955,1.757,1.621.426.666.642,1.457.646,2.374-.005,1.033-.27,1.931-.791,2.693-.522.763-1.275,1.351-2.259,1.765-.983.415-2.157.622-3.521.622-1.376,0-2.566-.21-3.572-.63-1.006-.419-1.789-1.044-2.35-1.873-.561-.829-.857-1.837-.891-3.025h3.423c.033.552.196,1.021.489,1.404.292.384.684.673,1.172.866.489.193,1.052.29,1.687.29.608,0,1.144-.09,1.608-.27.464-.179.82-.429,1.068-.75.249-.32.373-.69.373-1.11,0-.375-.109-.695-.327-.957-.219-.262-.536-.485-.953-.667-.417-.183-.957-.356-1.62-.522l-1.856-.456c-1.491-.365-2.635-.924-3.431-1.678-.796-.754-1.19-1.736-1.186-2.946-.005-1.005.269-1.896.82-2.672.553-.776,1.315-1.378,2.288-1.807.972-.428,2.074-.643,3.307-.643s2.33.214,3.277.643,1.683,1.027,2.204,1.798c.522.771.792,1.653.809,2.647h-3.39c-.045-.447-.188-.831-.432-1.152Z" stroke-width="0"/>
    <path d="m205.44,27.891c-.944-.547-1.671-1.316-2.18-2.308-.508-.992-.762-2.137-.762-3.435,0-1.31.254-2.46.762-3.452.509-.992,1.235-1.761,2.18-2.308.945-.547,2.05-.82,3.315-.82s2.368.273,3.311.82c.941.547,1.666,1.316,2.171,2.308.506.992.759,2.142.759,3.452,0,1.298-.253,2.443-.759,3.435-.505.992-1.229,1.761-2.171,2.308-.942.547-2.046.82-3.311.82s-2.37-.273-3.315-.82Zm4.803-2.375c.406-.334.713-.795.92-1.384s.311-1.258.311-2.01-.104-1.421-.311-2.01-.514-1.051-.92-1.388c-.406-.337-.896-.505-1.471-.505-.586,0-1.085.167-1.496.501-.412.334-.723.797-.933,1.388s-.314,1.262-.314,2.014c0,.757.104,1.428.314,2.014.21.586.521,1.046.933,1.38.411.334.91.501,1.496.501.574,0,1.064-.167,1.471-.501Z" stroke-width="0"/>
    <path d="m216.066,11.491h3.464v6.381h.1c.017-.044.036-.084.059-.12.021-.036.041-.073.058-.112.21-.392.461-.737.754-1.036s.67-.546,1.132-.742c.461-.196,1.004-.294,1.628-.294.962,0,1.834.248,2.619.742.784.495,1.405,1.235,1.864,2.221.459.986.688,2.181.688,3.584,0,1.376-.226,2.558-.676,3.547-.45.989-1.068,1.738-1.853,2.246s-1.668.762-2.651.762c-.619,0-1.163-.099-1.633-.298-.47-.199-.855-.45-1.156-.754s-.557-.655-.767-1.053c-.011-.022-.021-.042-.029-.062-.008-.019-.021-.042-.037-.07h-.149v2.03h-3.414V11.491Zm3.713,12.609c.216.572.526,1.015.933,1.33.405.315.891.473,1.454.473.574,0,1.067-.161,1.479-.481.411-.32.721-.765.928-1.334.207-.569.311-1.232.311-1.989,0-.751-.104-1.409-.311-1.972s-.515-1.001-.924-1.313-.903-.468-1.483-.468c-.569,0-1.057.15-1.463.452s-.716.735-.928,1.301c-.213.566-.319,1.234-.319,2.001,0,.763.107,1.43.323,2.001Z" stroke-width="0"/>
    <path d="m231.876,27.912c-.947-.533-1.675-1.291-2.184-2.275-.508-.983-.762-2.144-.762-3.48,0-1.298.255-2.446.767-3.443.511-.997,1.23-1.771,2.158-2.32.929-.55,2.006-.825,3.232-.825,1.144,0,2.166.24,3.066.721.9.48,1.61,1.206,2.13,2.175.519.97.778,2.156.778,3.559v.97h-10.715v-2.171h7.441c-.005-.514-.12-.972-.344-1.375s-.534-.718-.933-.945c-.397-.227-.851-.34-1.358-.34-.536,0-1.016.125-1.438.373-.422.249-.753.586-.99,1.011s-.359.892-.364,1.4v2.047c0,.636.12,1.187.36,1.653.24.467.58.828,1.02,1.082.439.254.954.381,1.546.381.392,0,.747-.053,1.064-.158.317-.104.589-.252.812-.443.224-.19.394-.413.51-.667h3.298c-.166.779-.503,1.46-1.011,2.043-.509.583-1.166,1.033-1.973,1.351-.807.318-1.727.477-2.76.477-1.287,0-2.404-.267-3.353-.8Z" stroke-width="0"/>
    <path d="m242.042,11.491h3.473v16.972h-3.473V11.491Zm3.157,9.107h.506l4.136-4.865h3.986l-5.495,6.381h-.812l-2.329,2.644.008-4.16Zm1.02,2.296l2.304-2.453,5.553,8.022h-4.069l-3.787-5.569Z" stroke-width="0"/>
    <path d="m255.034,13.832c-.29-.157-.521-.372-.691-.642-.172-.271-.258-.566-.258-.887,0-.315.086-.609.258-.883.171-.273.401-.489.691-.646.29-.157.604-.236.94-.236.343,0,.659.079.949.236.29.158.52.373.688.646.169.273.253.568.253.883,0,.32-.084.616-.253.887-.168.271-.397.485-.688.642-.29.158-.606.236-.949.236-.337,0-.65-.079-.94-.236Zm-.8,1.902h3.473v12.729h-3.473v-12.729Z" stroke-width="0"/>
    <path d="m262.681,28.463h-3.473v-12.729h3.307v2.238h.149c.193-.492.471-.918.833-1.28.361-.362.796-.64,1.301-.833.506-.193,1.07-.29,1.695-.29.878,0,1.648.192,2.312.576.663.384,1.174.938,1.533,1.662.359.724.539,1.574.539,2.552v8.105h-3.473v-7.5c0-.519-.09-.968-.27-1.347s-.44-.667-.783-.866c-.343-.199-.751-.298-1.227-.298-.486,0-.911.105-1.275.315-.365.21-.651.514-.858.912-.207.398-.311.87-.311,1.417v7.367Z" stroke-width="0"/>
    <path d="m275.043,33.013c-.859-.326-1.532-.79-2.019-1.393-.486-.602-.766-1.307-.837-2.113h3.423c.061.337.201.616.423.837.221.221.51.384.865.489.356.105.77.158,1.239.158.846,0,1.506-.196,1.98-.588.476-.393.713-1.011.713-1.856v-2.345h-.149l-.033.074c-.198.393-.448.731-.75,1.015-.301.285-.693.521-1.177.709-.483.188-1.043.282-1.678.282-.983,0-1.866-.233-2.647-.701-.782-.467-1.399-1.168-1.853-2.105-.453-.936-.68-2.087-.68-3.452,0-1.386.23-2.566.692-3.539.461-.972,1.082-1.702,1.864-2.188.782-.486,1.653-.729,2.614-.729.63,0,1.179.101,1.646.302.467.202.846.453,1.136.754s.542.648.758,1.04c.033.066.066.135.1.207h.141v-2.138h3.431v12.862c0,1.061-.258,1.958-.774,2.693-.517.734-1.242,1.287-2.176,1.657s-2.011.555-3.231.555c-1.155,0-2.162-.163-3.021-.489Zm4.549-7.778c.406-.29.716-.704.929-1.243.213-.539.319-1.184.319-1.935s-.105-1.407-.315-1.968c-.21-.561-.52-.991-.928-1.292-.409-.301-.898-.452-1.467-.452-.58,0-1.072.155-1.476.464-.403.31-.711.743-.924,1.301s-.319,1.207-.319,1.947.106,1.38.319,1.918c.213.539.521.956.924,1.251.403.296.896.443,1.476.443.568,0,1.057-.145,1.462-.435Z" stroke-width="0"/>
  </g>
  <g>
    <path d="m282.248,396.1v16.533c0,1.84-.438,3.459-1.312,4.859-.875,1.401-2.107,2.488-3.698,3.264s-3.431,1.162-5.52,1.162-3.928-.387-5.52-1.162c-1.591-.775-2.821-1.862-3.691-3.264-.87-1.4-1.306-3.02-1.306-4.859v-16.533h5.283v16.085c0,.978.218,1.851.652,2.616.436.768,1.049,1.368,1.84,1.803.792.436,1.705.652,2.741.652,1.044,0,1.962-.217,2.754-.652.791-.435,1.402-1.035,1.833-1.803.431-.766.646-1.639.646-2.616v-16.085h5.296Z" stroke-width="0"/>
    <path d="m294.532,406.522c-.556-.394-1.264-.591-2.126-.591-.563,0-1.068.081-1.517.242-.447.162-.802.393-1.062.69s-.388.634-.379,1.007c-.009.447.182.833.571,1.156s1.016.58,1.878.771l3.443.696c1.848.381,3.224.994,4.127,1.84.902.846,1.358,1.955,1.367,3.332-.009,1.234-.362,2.324-1.062,3.269-.701.944-1.689,1.681-2.965,2.206-1.276.527-2.752.79-4.426.79-1.699,0-3.17-.243-4.413-.728s-2.219-1.176-2.928-2.076c-.708-.898-1.133-1.975-1.273-3.226h5.221c.124.746.479,1.31,1.062,1.69.584.382,1.361.572,2.331.572.63,0,1.183-.081,1.659-.242.477-.162.846-.39,1.106-.684.262-.295.392-.645.392-1.051,0-.497-.209-.903-.628-1.219-.418-.314-1.075-.566-1.97-.758l-3.157-.621c-1.824-.356-3.199-.997-4.128-1.921-.928-.925-1.388-2.091-1.38-3.499-.008-1.211.319-2.265.982-3.164.663-.898,1.6-1.589,2.81-2.07,1.21-.48,2.627-.721,4.251-.721,1.592,0,2.981.238,4.171.715s2.117,1.16,2.784,2.051c.667.892,1.047,1.945,1.138,3.164h-4.873c-.116-.688-.451-1.229-1.007-1.622Z" stroke-width="0"/>
    <path d="m305.865,420.73c-1.421-.799-2.513-1.937-3.275-3.412-.763-1.475-1.144-3.215-1.144-5.221,0-1.947.383-3.669,1.149-5.165.767-1.495,1.847-2.655,3.238-3.48,1.393-.825,3.009-1.237,4.849-1.237,1.715,0,3.248.361,4.6,1.082,1.351.721,2.415,1.809,3.194,3.263s1.169,3.234,1.169,5.339v1.455h-16.073v-3.258h11.163c-.009-.77-.181-1.458-.517-2.062-.335-.605-.802-1.078-1.398-1.418s-1.276-.51-2.038-.51c-.805,0-1.523.188-2.157.561-.634.372-1.129.878-1.485,1.516-.356.639-.539,1.339-.547,2.102v3.07c0,.953.18,1.779.541,2.479.36.7.87,1.241,1.528,1.622.659.382,1.432.572,2.318.572.589,0,1.121-.078,1.598-.236.477-.157.883-.379,1.218-.665.336-.286.591-.62.765-1.001h4.948c-.249,1.169-.755,2.19-1.517,3.064-.763.875-1.749,1.55-2.959,2.026s-2.59.715-4.14.715c-1.931,0-3.606-.399-5.028-1.2Z" stroke-width="0"/>
    <path d="m321.114,402.464h5.047v3.319h.199c.231-.771.571-1.428,1.019-1.971.448-.543.977-.949,1.585-1.219.609-.269,1.274-.403,1.995-.403.563,0,1.119.054,1.666.161v4.649c-.266-.075-.609-.141-1.031-.198-.423-.059-.82-.088-1.193-.088-.779,0-1.478.168-2.095.504-.618.336-1.103.808-1.455,1.417-.352.608-.528,1.299-.528,2.069v10.853h-5.208v-19.094Z" stroke-width="0"/>
  </g>
  <rect x="613.423" y="259.224" width="136.055" height="136.055" fill="none" stroke="#000" stroke-miterlimit="10" stroke-width="3"/>
  <g>
    <path d="m658.177,245.281c-.688,1.312-1.632,2.315-2.83,3.008-1.199.693-2.556,1.04-4.069,1.04s-2.872-.347-4.073-1.04c-1.202-.693-2.144-1.697-2.826-3.012s-1.023-2.87-1.023-4.666.341-3.36,1.023-4.678c.683-1.317,1.624-2.32,2.826-3.008,1.201-.688,2.56-1.032,4.073-1.032s2.87.344,4.069,1.032c1.198.688,2.142,1.691,2.83,3.008.688,1.318,1.031,2.877,1.031,4.678s-.344,3.358-1.031,4.67Zm-3.075-7.715c-.356-.837-.861-1.471-1.517-1.902-.654-.431-1.424-.646-2.308-.646-.879,0-1.644.215-2.296.646-.651.431-1.157,1.065-1.517,1.902s-.538,1.852-.538,3.045.179,2.208.538,3.042c.359.834.865,1.468,1.517,1.902.652.434,1.417.651,2.296.651.884,0,1.653-.217,2.308-.651.655-.434,1.16-1.067,1.517-1.902.356-.834.535-1.848.535-3.042s-.179-2.208-.535-3.045Z" stroke-width="0"/>
    <path d="m660.469,236.368h3.423v2.138h.157c.022-.039.039-.07.05-.095s.025-.057.042-.095c.204-.392.454-.742.75-1.048.295-.307.675-.561,1.139-.763.465-.201,1.012-.302,1.642-.302.961,0,1.834.248,2.618.742.785.495,1.406,1.235,1.865,2.221.458.986.688,2.181.688,3.584,0,1.376-.224,2.558-.671,3.547-.448.989-1.063,1.738-1.849,2.246-.784.508-1.668.762-2.651.762-.636,0-1.189-.102-1.662-.307-.472-.204-.859-.462-1.16-.775-.301-.312-.554-.672-.758-1.081-.006-.011-.013-.022-.021-.033-.008-.011-.015-.025-.021-.042h-.107v6.804h-3.473v-17.503Zm3.722,8.366c.215.572.525,1.015.932,1.33s.894.473,1.463.473c.574,0,1.066-.161,1.476-.481.408-.32.717-.765.924-1.334.207-.569.311-1.232.311-1.989,0-.751-.103-1.409-.307-1.972s-.511-1.001-.92-1.313-.903-.468-1.483-.468c-.574,0-1.063.15-1.467.452s-.713.735-.928,1.301c-.216.566-.323,1.234-.323,2.001,0,.763.107,1.43.323,2.001Z" stroke-width="0"/>
    <path d="m676.287,248.546c-.947-.533-1.675-1.291-2.184-2.275-.508-.983-.762-2.144-.762-3.48,0-1.298.255-2.446.767-3.443.511-.997,1.23-1.771,2.158-2.32.929-.55,2.006-.825,3.232-.825,1.144,0,2.166.24,3.066.721.9.48,1.61,1.206,2.13,2.175.519.97.778,2.156.778,3.559v.97h-10.715v-2.171h7.441c-.005-.514-.12-.972-.344-1.375s-.534-.718-.933-.945c-.397-.227-.851-.34-1.358-.34-.536,0-1.016.125-1.438.373-.422.249-.753.586-.99,1.011s-.359.892-.364,1.4v2.047c0,.636.12,1.187.36,1.653.24.467.58.828,1.02,1.082.439.254.954.381,1.546.381.392,0,.747-.053,1.064-.158.317-.104.589-.252.812-.443.224-.19.394-.413.51-.667h3.298c-.166.779-.503,1.46-1.011,2.043-.509.583-1.166,1.033-1.973,1.351-.807.318-1.727.477-2.76.477-1.287,0-2.404-.267-3.353-.8Z" stroke-width="0"/>
    <path d="m689.926,249.098h-3.473v-12.729h3.307v2.238h.149c.193-.492.471-.918.833-1.28.361-.362.796-.64,1.301-.833.506-.193,1.07-.29,1.695-.29.878,0,1.648.192,2.312.576.663.384,1.174.938,1.533,1.662.359.724.539,1.574.539,2.552v8.105h-3.473v-7.5c0-.519-.09-.968-.27-1.347s-.44-.667-.783-.866c-.343-.199-.751-.298-1.227-.298-.486,0-.911.105-1.275.315-.365.21-.651.514-.858.912-.207.398-.311.87-.311,1.417v7.367Z" stroke-width="0"/>
    <path d="m698.72,249.098l5.867-16.972h4.533l5.868,16.972h-3.779l-4.293-13.144h-.133l-4.284,13.144h-3.779Zm12.655-6.671v2.76h-9.075v-2.76h9.075Z" stroke-width="0"/>
    <path d="m719.225,249.098h-3.522v-16.972h3.522v16.972Z" stroke-width="0"/>
  </g>
  <g>
    <g>
      <path d="m343.206,345.329l-4.767-53.468h52.382l-4.772,53.46-21.451,5.947-21.392-5.938Z" fill="#264de4" stroke-width="0"/>
      <path d="m381.963,341.916l4.078-45.684h-21.411v50.489l17.333-4.805Z" fill="#2965f1" stroke-width="0"/>
      <path d="m349.367,316.063l.588,6.558h14.675v-6.558h-15.262Zm-.585-6.715h15.847v-6.558h-16.443l.596,6.558Zm15.847,23.746l-.029.008-7.303-1.972-.467-5.23h-6.583l.919,10.296,13.433,3.729.03-.008v-6.823Z" fill="#ebebeb" stroke-width="0"/>
      <path d="m364.607,316.063v6.558h8.075l-.761,8.505-7.314,1.974v6.822l13.444-3.726.099-1.108,1.541-17.264.16-1.761,1.184-13.273h-16.427v6.558h9.24l-.597,6.715h-8.644Z" fill="#fff" stroke-width="0"/>
    </g>
    <g>
      <path d="m289.313,345.159l-4.69-52.621h51.592l-4.69,52.621-21.163,5.948" fill="#e34f26" stroke-width="0"/>
      <path d="m310.476,346.532l17.045-4.69,4.004-45.071h-21.049" fill="#ef652a" stroke-width="0"/>
      <path d="m310.476,316.332h-8.58l-.572-6.635h9.152v-6.406h-16.244l.114,1.716,1.602,17.845h14.528v-6.52Zm0,16.816h-.114l-7.207-1.945-.458-5.148h-6.406l.801,10.181,13.27,3.661h.114v-6.749Z" fill="#ebebeb" stroke-width="0"/>
      <path d="m310.362,316.332v6.52h8.008l-.801,8.351-7.207,1.945v6.749l13.27-3.661.114-1.144,1.487-17.045.229-1.716h-15.1Zm0-13.041v6.406h15.672l.114-1.373.343-3.317.114-1.716h-16.244Z" fill="#fff" stroke-width="0"/>
    </g>
  </g>
  <g>
    <path d="m236.095,128.545h-31.529c-9.741,0-17.637-7.896-17.637-17.638v-31.529c0-9.741,7.897-17.637,17.638-17.637h31.529c9.741,0,17.638,7.897,17.638,17.638v31.529c0,9.741-7.896,17.638-17.638,17.638h0Z" fill="#42427d" stroke-width="0"/>
    <g>
      <path d="m221.374,114.14h-16.389c-1.729,0-3.131-1.402-3.131-3.131s1.402-3.131,3.131-3.131h13.258v-13.257c0-1.729,1.402-3.131,3.131-3.131s3.131,1.402,3.131,3.131v16.389c0,1.729-1.402,3.131-3.131,3.131Z" fill="#fff" stroke-width="0"/>
      <path d="m237.763,97.752c-.802,0-1.603-.306-2.214-.918l-14.175-14.175-14.175,14.175c-1.223,1.223-3.206,1.223-4.428,0-1.223-1.223-1.223-3.206,0-4.428l16.389-16.389c.587-.587,1.384-.917,2.214-.917s1.627.33,2.214.917l16.389,16.389c1.223,1.223,1.223,3.206,0,4.428-.611.612-1.413.918-2.214.918h-.001Z" fill="#fff" stroke-width="0"/>
    </g>
  </g>
  <g>
    <line x1="248.494" y1="259.339" x2="281.588" y2="374.997" fill="none" stroke="#000" stroke-miterlimit="10" stroke-width="2"/>
    <polygon points="244.609 245.763 242.266 267.13 248.784 260.354 257.898 262.657 244.609 245.763" stroke-width="0"/>
    <polygon points="285.473 388.573 272.181 371.679 281.297 373.982 287.814 367.206 285.473 388.573" stroke-width="0"/>
  </g>
  <g>
    <line x1="361.195" y1="150.288" x2="589.666" y2="131.897" fill="none" stroke="#000" stroke-miterlimit="10" stroke-width="2"/>
    <polygon points="347.119 151.421 367.606 157.929 362.247 150.203 366.301 141.721 347.119 151.421" stroke-width="0"/>
    <polygon points="603.742 130.764 584.56 140.465 588.614 131.982 583.255 124.258 603.742 130.764" stroke-width="0"/>
  </g>
  <g>
    <line x1="360.013" y1="212.745" x2="585.866" y2="313.585" fill="none" stroke="#000" stroke-miterlimit="10" stroke-width="2"/>
    <polygon points="347.119 206.988 361.974 222.525 360.977 213.175 368.603 207.677 347.119 206.988" stroke-width="0"/>
    <polygon points="598.76 319.342 577.275 318.654 584.902 313.155 583.904 303.807 598.76 319.342" stroke-width="0"/>
  </g>
  <g>
    <line x1="83.108" y1="351.24" x2="146.05" y2="260.693" fill="none" stroke="#000" stroke-miterlimit="10" stroke-width="2"/>
    <polygon points="154.11 249.098 149.429 270.077 145.448 261.559 136.078 260.797 154.11 249.098" stroke-width="0"/>
  </g>
  <g>
    <g>
      <path d="m20.394,380.204c-.617,1.177-1.463,2.077-2.539,2.698s-2.292.933-3.65.933-2.576-.311-3.654-.933c-1.078-.622-1.923-1.523-2.535-2.702-.612-1.18-.918-2.575-.918-4.186s.306-3.014.918-4.197c.612-1.182,1.457-2.081,2.535-2.698,1.078-.617,2.296-.926,3.654-.926s2.575.309,3.65.926,1.922,1.516,2.539,2.698.926,2.581.926,4.197-.309,3.012-.926,4.189Zm-2.758-6.921c-.32-.751-.773-1.319-1.36-1.706s-1.278-.58-2.07-.58c-.788,0-1.475.193-2.059.58-.585.387-1.038.955-1.36,1.706-.322.751-.483,1.662-.483,2.732s.161,1.98.483,2.729c.322.748.776,1.317,1.36,1.706.585.389,1.271.584,2.059.584.793,0,1.483-.194,2.07-.584.587-.389,1.041-.958,1.36-1.706s.479-1.658.479-2.729-.16-1.981-.479-2.732Z" fill="#f60004" stroke-width="0"/>
      <path d="m22.525,368.402h5.962c1.13,0,2.106.217,2.929.65.823.434,1.448,1.038,1.877,1.814.429.776.643,1.669.643,2.68s-.217,1.903-.65,2.676c-.434.773-1.067,1.374-1.9,1.803s-1.821.643-2.966.643h-3.829v-2.55h3.316c.61,0,1.123-.108,1.539-.324.416-.216.727-.515.933-.899s.309-.834.309-1.349-.103-.964-.309-1.346-.517-.678-.933-.888c-.416-.211-.932-.316-1.546-.316h-2.216v12.63h-3.16v-15.225Z" fill="#f60004" stroke-width="0"/>
      <path d="m34.867,368.402h10.215v2.617h-7.055v3.688h6.527v2.609h-6.527v3.695h7.085v2.616h-10.244v-15.225Z" fill="#f60004" stroke-width="0"/>
      <path d="m59.164,383.627h-2.736l-6.691-9.672h-.112v9.672h-3.16v-15.225h2.781l6.639,9.664h.134v-9.664h3.145v15.225Z" fill="#f60004" stroke-width="0"/>
      <path d="m60.659,368.402h6.059c1.09,0,2.013.164,2.769.491s1.325.786,1.706,1.375.572,1.271.572,2.044c0,.585-.117,1.1-.349,1.546-.233.446-.557.814-.97,1.104-.414.29-.891.494-1.431.613v.149c.59.029,1.14.197,1.65.502.51.305.92.734,1.23,1.286.31.553.465,1.193.465,1.922,0,.813-.199,1.535-.598,2.167-.399.632-.995,1.127-1.788,1.486-.793.36-1.747.539-2.862.539h-6.453v-15.225Zm6.784,6.141c.355-.159.631-.385.829-.68.198-.295.297-.64.297-1.037,0-.372-.089-.698-.267-.978s-.437-.497-.777-.651c-.339-.154-.745-.23-1.215-.23h-2.491v3.814h2.431c.441,0,.839-.079,1.193-.238Zm.513,6.252c.389-.159.677-.379.862-.662.186-.282.279-.619.279-1.011,0-.421-.102-.798-.305-1.13-.203-.332-.498-.59-.885-.773-.386-.183-.837-.275-1.353-.275h-2.736v4.089h2.669c.59,0,1.079-.079,1.468-.238Z" fill="#002c72" stroke-width="0"/>
      <path d="m72.429,383.627l5.263-15.225h4.067l5.264,15.225h-3.39l-3.851-11.79h-.119l-3.843,11.79h-3.39Zm11.352-5.984v2.476h-8.14v-2.476h8.14Z" fill="#002c72" stroke-width="0"/>
      <path d="m100.361,383.627h-2.736l-6.691-9.672h-.112v9.672h-3.16v-15.225h2.781l6.639,9.664h.134v-9.664h3.145v15.225Z" fill="#002c72" stroke-width="0"/>
      <path d="m101.856,368.402h3.16v6.75h.201l5.531-6.75h3.799l-5.672,6.817,5.739,8.408h-3.792l-4.208-6.289-1.598,1.94v4.349h-3.16v-15.225Z" fill="#002c72" stroke-width="0"/>
      <path d="m118.213,383.627h-3.16v-15.225h3.16v15.225Z" fill="#002c72" stroke-width="0"/>
      <path d="m132.406,383.627h-2.736l-6.691-9.672h-.112v9.672h-3.16v-15.225h2.781l6.639,9.664h.134v-9.664h3.145v15.225Z" fill="#002c72" stroke-width="0"/>
      <path d="m143.346,372.071c-.295-.345-.66-.61-1.097-.795-.436-.186-.932-.279-1.487-.279-.783,0-1.472.197-2.067.591s-1.057.965-1.386,1.714-.494,1.648-.494,2.699c0,1.061.162,1.966.487,2.717.324.751.785,1.325,1.383,1.721.597.397,1.302.595,2.115.595.724,0,1.349-.133,1.877-.398.528-.265.93-.64,1.208-1.126.278-.486.416-1.056.416-1.71l.647.097h-3.94v-2.394h6.349v1.903c0,1.309-.279,2.449-.836,3.42-.557.972-1.335,1.716-2.331,2.234-.996.518-2.134.777-3.412.777-1.418,0-2.668-.317-3.751-.952-1.083-.634-1.923-1.539-2.52-2.713-.597-1.175-.896-2.555-.896-4.141,0-1.606.309-3,.926-4.182s1.463-2.086,2.539-2.713,2.287-.941,3.635-.941c1.13,0,2.165.217,3.104.651s1.706,1.038,2.301,1.814c.595.776.961,1.659,1.1,2.65h-3.219c-.139-.481-.356-.893-.651-1.238Z" fill="#002c72" stroke-width="0"/>
    </g>
    <polygon points="68.609 366.349 65.619 366.349 65.619 354.121 15.701 362.478 15.701 366.349 12.71 366.349 12.71 359.946 68.609 350.589 68.609 366.349" fill="#f60004" stroke-width="0"/>
    <polygon points="68.609 401.229 12.71 391.877 12.71 385.475 15.701 385.475 15.701 389.346 65.619 397.697 65.619 385.475 68.609 385.475 68.609 401.229" fill="#f60004" stroke-width="0"/>
    <g>
      <path d="m95.055,392.532h-7.558v-.944h7.558v.944Zm-2.198-6.591c.474.187.846.453,1.114.796.269.344.403.738.403,1.183,0,.461-.134.863-.403,1.208s-.639.61-1.111.798c-.472.187-1.005.28-1.601.278-.589.002-1.118-.091-1.588-.278s-.84-.454-1.109-.8c-.27-.346-.404-.748-.401-1.206-.002-.445.132-.839.401-1.183.27-.343.64-.609,1.109-.796s.999-.281,1.588-.281,1.123.093,1.597.281Zm-2.617.806c-.297.108-.527.263-.692.464-.165.201-.247.438-.247.71,0,.285.083.53.247.734.165.204.395.36.69.467.296.107.636.162,1.021.164.39-.002.733-.057,1.031-.164.298-.107.529-.263.694-.467.165-.204.247-.449.247-.734,0-.272-.083-.508-.249-.71-.166-.201-.397-.356-.695-.464s-.64-.162-1.028-.162c-.383,0-.723.054-1.019.162Zm1.591,5.027h-1.146v-1.901h1.146v1.901Z" fill="#8e8f93" stroke-width="0"/>
      <path d="m102.611,390.415h-7.539v-.915h7.539v.915Zm-.677-3.923h-6.2v-.909h6.2v.909Zm-.055,2.35h-6.091v-.918h6.091v.918Zm-4.736,3.892h-1.162v-1.76h1.162v1.76Zm4.608.623h-5.77v-.934h5.77v.934Zm-3.789-4.955h-1.156v-2.469h1.156v2.469Zm2.896,0h-1.165v-2.469h1.165v2.469Z" fill="#8e8f93" stroke-width="0"/>
      <path d="m104.031,386.912h1.127v-1.14h1.072v3.943h-3.294v-3.943h1.095v1.14Zm1.127,1.891v-.995h-1.127v.995h1.127Zm3.28,1.757c.431.126.764.308.997.545.233.238.351.519.353.845-.002.319-.12.596-.353.83-.233.234-.566.413-.997.536s-.937.183-1.517.181c-.58.002-1.085-.058-1.516-.181-.43-.123-.762-.301-.995-.535-.233-.233-.349-.51-.347-.832-.002-.327.113-.609.347-.846s.565-.418.995-.544c.43-.126.936-.19,1.516-.19s1.086.064,1.517.19Zm-2.44.779c-.254.05-.447.127-.58.231-.133.104-.199.231-.199.38,0,.146.066.269.198.368s.324.174.578.223.562.075.926.077c.362-.002.669-.028.922-.077s.446-.124.58-.223.201-.222.201-.368c0-.15-.067-.276-.201-.38s-.327-.181-.58-.231-.56-.075-.922-.075-.669.025-.923.075Zm1.957-1.308h-1.076v-4.643h1.076v4.643Zm.999-1.85h-1.336v-.938h1.336v.938Zm.793,2.065h-1.098v-5.003h1.098v5.003Z" fill="#8e8f93" stroke-width="0"/>
      <path d="m110.521,388.277l-.164-.899,3.15-.106v.79l-2.986.216Zm3.768-.499c-.264.588-.683,1.094-1.257,1.518-.574.425-1.32.769-2.238,1.033l-.42-.918c.76-.206,1.368-.464,1.824-.774.456-.311.781-.663.976-1.058s.293-.841.296-1.337v-.514h1.217c0,.78-.132,1.463-.397,2.051Zm-.14-1.135h-3.375v-.915h3.375v.915Zm1.69,3.787c.427.127.756.314.986.561.23.246.345.539.345.88s-.115.633-.345.877-.558.429-.984.554c-.426.126-.927.188-1.503.188-.591,0-1.1-.062-1.529-.188-.428-.125-.758-.309-.989-.552-.231-.243-.347-.536-.347-.878,0-.34.116-.634.347-.88.231-.246.561-.433.991-.561s.938-.191,1.527-.191c.574,0,1.074.064,1.501.191Zm-2.439.795c-.251.054-.439.134-.567.242s-.19.242-.188.403c-.002.158.061.292.189.401.128.109.318.192.569.249.25.057.562.085.934.085.359,0,.664-.029.913-.085s.438-.14.567-.249.194-.243.196-.401c0-.158-.064-.292-.192-.401s-.317-.19-.567-.244-.555-.081-.917-.081c-.375,0-.687.027-.938.081Zm3.737-1.111h-1.162v-4.871h1.162v4.871Z" fill="#8e8f93" stroke-width="0"/>
      <path d="m125.318,389.86h-7.504v-.934h7.504v.934Zm-2.232.707c.443.124.784.303,1.023.538.239.234.359.514.361.839-.002.324-.122.603-.361.838-.239.236-.581.415-1.026.537s-.967.182-1.564.179c-.595.002-1.114-.058-1.556-.183-.442-.124-.784-.303-1.027-.538-.243-.234-.364-.512-.364-.833,0-.325.121-.605.364-.839.243-.235.585-.413,1.026-.536.441-.123.96-.186,1.557-.188.602,0,1.124.062,1.567.186Zm.851-4.053h-5.279v-.909h5.279v.909Zm-3.388,4.809c-.265.052-.468.131-.608.236-.14.105-.209.233-.207.385-.002.148.066.271.206.37.139.098.341.173.607.225s.59.078.973.08c.383-.002.708-.029.976-.079.267-.05.472-.125.613-.225.141-.099.212-.223.212-.371,0-.152-.071-.28-.212-.385-.141-.105-.346-.184-.615-.236-.269-.053-.593-.079-.974-.079s-.704.026-.97.079Zm1.224-2.143h-1.146v-1.705h1.146v1.705Zm2.655-2.839c0,.276-.004.518-.013.724-.008.207-.03.433-.064.677-.034.245-.088.495-.161.75l-1.137-.109c.064-.261.112-.507.143-.737.031-.23.051-.438.058-.624.008-.186.011-.424.011-.713v-.703h1.162v.735Z" fill="#8e8f93" stroke-width="0"/>
      <path d="m132.925,390.052h-7.552v-.918h7.552v.918Zm-2.256.589c.431.119.761.292.991.52.229.228.345.505.347.83-.002.319-.118.593-.347.822-.229.23-.559.402-.991.52-.432.118-.946.176-1.543.176s-1.116-.058-1.549-.176c-.433-.118-.766-.291-.997-.52-.231-.229-.347-.503-.347-.822,0-.325.115-.602.347-.83.231-.228.563-.402.995-.52s.949-.178,1.551-.178c.597,0,1.111.06,1.543.178Zm1.35-4.141h-4.579v1.612h-1.156v-2.514h5.735v.902Zm.042,1.927h-5.776v-.909h5.776v.909Zm-3.887,2.99c-.254.047-.444.119-.572.217s-.19.217-.188.358c-.002.144.06.262.186.355.126.093.316.163.568.209s.571.069.957.069c.379,0,.695-.023.947-.069s.444-.116.575-.209c.131-.093.196-.211.196-.355-.002-.141-.068-.26-.197-.358-.13-.098-.321-.17-.575-.217-.253-.047-.569-.071-.946-.071-.381,0-.698.023-.952.071Zm1.546-1.92h-1.137v-1.612h1.137v1.612Z" fill="#8e8f93" stroke-width="0"/>
      <path d="m136.36,385.835c.333.168.595.401.787.7s.289.634.291,1.007c-.002.377-.099.715-.291,1.016s-.454.536-.787.706c-.333.171-.703.255-1.109.255-.42,0-.797-.085-1.132-.255-.335-.17-.597-.405-.787-.704-.19-.3-.283-.64-.281-1.018-.002-.373.091-.708.281-1.007.189-.298.452-.532.788-.7.336-.168.713-.251,1.13-.249.407-.002.776.081,1.109.249Zm-1.681.831c-.167.081-.297.196-.39.346-.093.15-.14.326-.14.53s.047.38.14.531c.093.151.223.268.39.352.167.084.357.125.571.125.21,0,.396-.041.559-.125s.291-.201.384-.352c.093-.151.141-.328.143-.531-.002-.201-.05-.377-.143-.529-.093-.151-.221-.266-.384-.347-.163-.08-.349-.119-.559-.117-.214-.002-.405.037-.571.117Zm.86,4.17h3.217v-.797h1.156v3.369h-5.513v-3.369h1.14v.797Zm3.217,1.634v-.745h-3.217v.745h3.217Zm.495-4.476h-2.097v-.922h2.097v.922Zm.661,1.683h-1.156v-4.447h1.156v4.447Z" fill="#8e8f93" stroke-width="0"/>
      <path d="m148.073,390.785h-7.558v-.928h7.558v.928Zm-.902-1.817h-5.763v-3.33h5.763v3.33Zm-4.627-.906h3.474v-1.506h-3.474v1.506Zm2.299,5.427h-1.146v-3.035h1.146v3.035Z" fill="#8e8f93" stroke-width="0"/>
    </g>
  </g>
</svg>